# Blender v2.90.0 OBJ File: 'Wall.blend'
# www.blender.org
o Plane
v -1.000000 0.520000 0.000000
v -1.000000 1.014000 0.017813
v -1.000000 1.014000 0.000000
v 1.000000 0.494000 0.000000
v 0.366667 0.520000 0.000000
v 0.266667 0.494000 0.000000
v 1.000000 1.014000 0.000000
v 0.466667 1.040000 0.000000
v 0.366667 1.014000 0.000000
v 0.466667 1.534000 0.000000
v 1.000000 1.560000 0.000000
v 0.366667 1.560000 0.000000
v 0.366667 2.054000 0.000000
v 1.000000 2.080000 0.000000
v 0.266667 2.080000 0.000000
v -0.366667 2.054000 0.000000
v -0.433333 2.080000 0.000000
v -0.466667 2.080000 0.000000
v -0.333333 2.054000 0.000000
v 0.233333 2.080000 0.000000
v -0.266667 1.534000 0.000000
v -0.333333 1.560000 0.000000
v -0.366667 1.560000 0.000000
v -0.233333 1.534000 0.000000
v 0.333333 1.560000 0.000000
v -0.333333 1.014000 0.000000
v -0.266667 1.040000 0.000000
v -0.366667 1.014000 0.000000
v 0.333333 1.014000 0.000000
v -0.233333 1.040000 0.000000
v -0.433333 0.494000 0.000000
v -0.366667 0.520000 0.000000
v -0.466667 0.494000 0.000000
v 0.233333 0.494000 0.000000
v -0.333333 0.520000 0.000000
v -0.466667 2.600000 0.000000
v 0.333333 0.520000 0.017813
v 0.333333 0.520000 0.000000
v 0.333333 2.054000 0.000000
v 0.433333 1.534000 0.000000
v 0.433333 1.040000 0.000000
v 0.233333 2.600000 0.000000
v -1.000000 1.040000 0.000000
v -1.000000 1.534000 0.017813
v -1.000000 1.534000 0.000000
v -1.000000 0.494000 0.000000
v -1.000000 1.560000 0.000000
v -1.000000 2.054000 0.000000
v -1.000000 2.080000 0.000000
v -0.333333 1.014000 0.017813
v -1.000000 2.054000 0.017813
v 1.000000 0.520000 0.017813
v 1.000000 0.520000 0.000000
v -1.000000 2.600000 0.017813
v -1.000000 2.600000 0.000000
v -0.466667 2.600000 0.017813
v -0.466667 2.080000 0.017813
v 1.000000 1.534000 0.017813
v 1.000000 1.534000 0.000000
v 1.000000 2.600000 0.000000
v 1.000000 2.080000 0.017813
v -0.466667 0.000000 0.000000
v -1.000000 -0.000000 0.017813
v -1.000000 0.000000 0.000000
v 1.000000 0.000000 0.000000
v 0.266667 -0.000000 0.017813
v 0.266667 0.000000 0.000000
v 0.233333 0.000000 0.000000
v -0.433333 2.080000 0.017813
v -0.433333 0.000000 0.000000
v 0.433333 1.534000 0.017813
v 0.266667 2.600000 0.017813
v 0.266667 2.080000 0.017813
v 0.233333 2.080000 0.017813
v -0.433333 2.600000 0.017813
v -1.000000 2.080000 0.017813
v -1.000000 1.560000 0.017813
v -0.366667 2.054000 0.017813
v 0.333333 1.560000 0.017813
v -0.333333 2.054000 0.017813
v -0.333333 1.560000 0.017813
v 1.000000 1.560000 0.017813
v 0.366667 2.054000 0.017813
v 0.366667 1.560000 0.017813
v -1.000000 1.040000 0.017813
v -0.266667 1.534000 0.017813
v -0.233333 1.040000 0.017813
v -0.233333 1.534000 0.017813
v 1.000000 1.040000 0.017813
v 0.466667 1.534000 0.017813
v 0.466667 1.040000 0.017813
v -0.366667 0.520000 0.017813
v -1.000000 0.520000 0.017813
v -0.333333 0.520000 0.017813
v 0.366667 1.014000 0.017813
v 0.366667 0.520000 0.017813
v -0.466667 -0.000000 0.017813
v -1.000000 0.494000 0.017813
v -0.433333 -0.000000 0.017813
v 0.233333 0.494000 0.017813
v -0.433333 0.494000 0.017813
v 1.000000 0.494000 0.017813
v 0.266667 0.494000 0.017813
v 1.000000 2.054000 0.000000
v -0.366667 1.014000 0.017813
v -0.433333 2.600000 0.000000
v 0.333333 1.014000 0.017813
v -0.366667 1.560000 0.017813
v 0.266667 2.600000 0.000000
v 1.000000 2.600000 0.017813
v 1.000000 1.014000 0.017813
v 1.000000 1.040000 0.000000
v 1.000000 -0.000000 0.017813
v 0.333333 2.054000 0.017813
v 0.233333 -0.000000 0.017813
v 1.000000 2.054000 0.017813
v 0.233333 2.600000 0.017813
v -0.466667 0.494000 0.017813
v 0.433333 1.040000 0.017813
v -0.266667 1.040000 0.017813
vt 0.873201 0.941432
vt 0.868633 0.811705
vt 0.873201 0.811705
vt 0.543612 0.170693
vt 0.381212 0.177521
vt 0.355570 0.170693
vt 0.543612 0.307248
vt 0.406854 0.314076
vt 0.381212 0.307248
vt 0.406854 0.443802
vt 0.543612 0.450630
vt 0.381212 0.450630
vt 0.381212 0.580357
vt 0.543612 0.587185
vt 0.355570 0.587185
vt 0.193170 0.580357
vt 0.176076 0.587185
vt 0.167528 0.587185
vt 0.201718 0.580357
vt 0.347023 0.587185
vt 0.218812 0.443802
vt 0.201718 0.450630
vt 0.193170 0.450630
vt 0.227360 0.443802
vt 0.372665 0.450630
vt 0.201718 0.307248
vt 0.218812 0.314076
vt 0.193170 0.307248
vt 0.372665 0.307248
vt 0.227360 0.314076
vt 0.176076 0.170693
vt 0.193170 0.177521
vt 0.167528 0.170693
vt 0.347023 0.170693
vt 0.201718 0.177521
vt 0.167528 0.723739
vt 0.919243 0.655354
vt 0.914676 0.525627
vt 0.919243 0.525627
vt 0.372665 0.580357
vt 0.398307 0.443802
vt 0.398307 0.314076
vt 0.372665 0.177521
vt 0.347023 0.723739
vt 0.930023 0.670921
vt 0.934591 0.800648
vt 0.930023 0.800648
vt 0.030770 0.177521
vt 0.030770 0.170693
vt 0.030770 0.314076
vt 0.030770 0.307248
vt 0.030771 0.443803
vt 0.030771 0.450630
vt 0.030771 0.580357
vt 0.030771 0.587185
vt 0.924359 0.945942
vt 0.919791 0.816215
vt 0.924359 0.816215
vt 0.926710 0.137510
vt 0.922143 0.007784
vt 0.926710 0.007784
vt 0.919243 0.945942
vt 0.914676 0.816215
vt 0.919243 0.816215
vt 0.914127 0.517297
vt 0.909560 0.380742
vt 0.914127 0.380742
vt 0.893664 0.913165
vt 0.889096 0.773109
vt 0.893664 0.773109
vt 0.911363 0.144748
vt 0.906795 0.008193
vt 0.911363 0.008193
vt 0.898780 0.893557
vt 0.894212 0.753501
vt 0.898780 0.753501
vt 0.909012 0.670238
vt 0.904444 0.533683
vt 0.909012 0.533683
vt 0.883433 0.913165
vt 0.878865 0.773109
vt 0.883433 0.773109
vt 0.873201 0.792367
vt 0.868633 0.599790
vt 0.873201 0.599790
vt 0.355570 0.040966
vt 0.347023 0.040966
vt 0.890900 0.185574
vt 0.886332 0.010504
vt 0.890900 0.010504
vt 0.176076 0.040966
vt 0.167528 0.040966
vt 0.878317 0.558123
vt 0.873749 0.383053
vt 0.878317 0.383053
vt 0.582383 0.011555
vt 0.715722 0.204132
vt 0.582383 0.204132
vt 0.715722 0.832633
vt 0.582383 0.657563
vt 0.715722 0.657563
vt 0.715722 0.851541
vt 0.582383 0.991597
vt 0.582383 0.851541
vt 0.149473 0.941001
vt 0.276145 0.774685
vt 0.276145 0.941001
vt 0.857994 0.832633
vt 0.731322 0.657563
vt 0.857994 0.657563
vt 0.134272 0.941001
vt 0.007600 0.774685
vt 0.134272 0.774685
vt 0.581983 0.635504
vt 0.708655 0.442927
vt 0.708655 0.635504
vt 0.857994 0.010504
vt 0.731322 0.185574
vt 0.731322 0.010504
vt 0.865728 0.224090
vt 0.992400 0.364146
vt 0.865728 0.364146
vt 0.433218 0.774685
vt 0.559890 0.941001
vt 0.433218 0.941001
vt 0.723855 0.422269
vt 0.850527 0.597339
vt 0.723855 0.597339
vt 0.291345 0.774685
vt 0.418017 0.941001
vt 0.291345 0.941001
vt 0.731322 0.851541
vt 0.857994 0.991597
vt 0.731322 0.991597
vt 0.723855 0.401260
vt 0.850527 0.226190
vt 0.850527 0.401260
vt 0.581983 0.419818
vt 0.708655 0.227241
vt 0.708655 0.419818
vt 0.929475 0.945942
vt 0.924907 0.816215
vt 0.929475 0.816215
vt 0.914127 0.663001
vt 0.909560 0.533274
vt 0.914127 0.533274
vt 0.924359 0.510059
vt 0.919791 0.380333
vt 0.924359 0.380333
vt 0.898780 0.548845
vt 0.894212 0.382528
vt 0.898780 0.382528
vt 0.934591 0.655354
vt 0.930023 0.525627
vt 0.934591 0.525627
vt 0.903896 0.889846
vt 0.899328 0.753291
vt 0.903896 0.753291
vt 0.916479 0.137510
vt 0.911911 0.007784
vt 0.916479 0.007784
vt 0.909012 0.517297
vt 0.904444 0.380742
vt 0.909012 0.380742
vt 0.883433 0.558123
vt 0.878865 0.383053
vt 0.883433 0.383053
vt 0.936942 0.137510
vt 0.932374 0.007784
vt 0.936942 0.007784
vt 0.898780 0.735119
vt 0.894212 0.568803
vt 0.898780 0.568803
vt 0.919243 0.800648
vt 0.914676 0.670921
vt 0.919243 0.670921
vt 0.868085 0.576681
vt 0.863517 0.384104
vt 0.868085 0.384104
vt 0.875552 0.204132
vt 0.870984 0.011555
vt 0.875552 0.011555
vt 0.899328 0.568803
vt 0.903896 0.735119
vt 0.899328 0.735119
vt 0.896015 0.176296
vt 0.891448 0.009979
vt 0.896015 0.009979
vt 0.901131 0.176296
vt 0.896563 0.009979
vt 0.901131 0.009979
vt 0.903896 0.548845
vt 0.899328 0.382528
vt 0.903896 0.382528
vt 0.569541 0.773109
vt 0.574108 0.913165
vt 0.569541 0.913165
vt 0.878317 0.913165
vt 0.873749 0.773109
vt 0.878317 0.773109
vt 0.924359 0.655354
vt 0.919791 0.525627
vt 0.924359 0.525627
vt 0.876100 0.010504
vt 0.880668 0.185574
vt 0.876100 0.185574
vt 0.906247 0.176296
vt 0.901679 0.009979
vt 0.906247 0.009979
vt 0.929475 0.800648
vt 0.924907 0.670921
vt 0.929475 0.670921
vt 0.873201 0.576681
vt 0.868633 0.384104
vt 0.873201 0.384104
vt 0.888548 0.558123
vt 0.883981 0.383053
vt 0.888548 0.383053
vt 0.927258 0.007784
vt 0.931826 0.137511
vt 0.927258 0.137511
vt 0.888548 0.744923
vt 0.883981 0.578606
vt 0.888548 0.578606
vt 0.934591 0.510060
vt 0.930023 0.380333
vt 0.934591 0.380333
vt 0.881216 0.010504
vt 0.885784 0.185574
vt 0.881216 0.185574
vt 0.929475 0.655354
vt 0.924907 0.525627
vt 0.929475 0.525627
vt 0.929475 0.510060
vt 0.924907 0.380333
vt 0.929475 0.380333
vt 0.888548 0.903361
vt 0.883981 0.763305
vt 0.888548 0.763305
vt 0.914127 0.815942
vt 0.909560 0.686215
vt 0.914127 0.686215
vt 0.893664 0.558123
vt 0.889096 0.383053
vt 0.893664 0.383053
vt 0.921594 0.007784
vt 0.917027 0.137511
vt 0.917027 0.007784
vt 0.909012 0.823179
vt 0.904444 0.686625
vt 0.909012 0.686625
vt 0.878317 0.754202
vt 0.873749 0.579132
vt 0.878317 0.579132
vt 0.934591 0.945942
vt 0.930023 0.816215
vt 0.934591 0.816215
vt 0.893664 0.754202
vt 0.889096 0.579132
vt 0.893664 0.579132
vt 0.919243 0.510060
vt 0.914676 0.380333
vt 0.919243 0.380333
vt 0.862969 0.576681
vt 0.858402 0.384104
vt 0.862969 0.384104
vt 0.870436 0.204132
vt 0.865869 0.011555
vt 0.870436 0.011555
vt 0.878865 0.579132
vt 0.883433 0.754202
vt 0.878865 0.754202
vt 0.924359 0.800648
vt 0.919791 0.670921
vt 0.924359 0.670921
vt 0.868633 0.941432
vt 0.543612 0.177521
vt 0.543612 0.314075
vt 0.543612 0.443802
vt 0.543612 0.580357
vt 0.176076 0.723739
vt 0.914676 0.655354
vt 0.355570 0.723739
vt 0.934591 0.670921
vt 0.919791 0.945942
vt 0.922143 0.137510
vt 0.914676 0.945942
vt 0.909560 0.517297
vt 0.889096 0.913165
vt 0.906795 0.144748
vt 0.894212 0.893557
vt 0.904444 0.670238
vt 0.878865 0.913165
vt 0.868633 0.792367
vt 0.886332 0.185574
vt 0.873749 0.558123
vt 0.715722 0.011555
vt 0.582383 0.832633
vt 0.715722 0.991597
vt 0.149473 0.774685
vt 0.731322 0.832633
vt 0.007600 0.941001
vt 0.581983 0.442927
vt 0.857994 0.185574
vt 0.992400 0.224090
vt 0.559890 0.774685
vt 0.850527 0.422269
vt 0.418017 0.774685
vt 0.857994 0.851541
vt 0.723855 0.226191
vt 0.581983 0.227241
vt 0.924907 0.945942
vt 0.909560 0.663001
vt 0.919791 0.510059
vt 0.894212 0.548845
vt 0.930023 0.655354
vt 0.899328 0.889846
vt 0.911911 0.137510
vt 0.904444 0.517297
vt 0.878865 0.558123
vt 0.932374 0.137510
vt 0.894212 0.735119
vt 0.914676 0.800648
vt 0.863517 0.576681
vt 0.870984 0.204132
vt 0.903896 0.568803
vt 0.891448 0.176296
vt 0.896563 0.176296
vt 0.899328 0.548845
vt 0.574108 0.773109
vt 0.873749 0.913165
vt 0.919791 0.655354
vt 0.880668 0.010504
vt 0.901679 0.176296
vt 0.924907 0.800648
vt 0.868633 0.576681
vt 0.883981 0.558123
vt 0.931826 0.007784
vt 0.883981 0.744923
vt 0.930023 0.510060
vt 0.885784 0.010504
vt 0.924907 0.655354
vt 0.924907 0.510060
vt 0.883981 0.903361
vt 0.909560 0.815942
vt 0.889096 0.558123
vt 0.921594 0.137511
vt 0.904444 0.823179
vt 0.873749 0.754202
vt 0.930023 0.945942
vt 0.889096 0.754202
vt 0.914676 0.510060
vt 0.858402 0.576681
vt 0.865869 0.204132
vt 0.883433 0.579132
vt 0.919791 0.800648
vn -1.0000 0.0000 0.0000
vn 0.0000 -0.0000 1.0000
vn 1.0000 0.0000 0.0000
vn 0.0000 1.0000 0.0000
vn 0.0000 -1.0000 -0.0000
s 1
f 1/1/1 2/2/1 3/3/1
f 4/4/2 5/5/2 6/6/2
f 7/7/2 8/8/2 9/9/2
f 10/10/2 11/11/2 12/12/2
f 13/13/2 14/14/2 15/15/2
f 16/16/2 17/17/2 18/18/2
f 19/19/2 20/20/2 17/17/2
f 21/21/2 22/22/2 23/23/2
f 24/24/2 25/25/2 22/22/2
f 26/26/2 27/27/2 28/28/2
f 29/29/2 30/30/2 26/26/2
f 31/31/2 32/32/2 33/33/2
f 34/34/2 35/35/2 31/31/2
f 17/17/2 36/36/2 18/18/2
f 29/37/3 37/38/3 38/39/3
f 39/40/2 15/15/2 20/20/2
f 40/41/2 12/12/2 25/25/2
f 9/9/2 41/42/2 29/29/2
f 6/6/2 38/43/2 34/34/2
f 15/15/2 42/44/2 20/20/2
f 43/45/1 44/46/1 45/47/1
f 33/33/2 1/48/2 46/49/2
f 28/28/2 43/50/2 3/51/2
f 45/52/2 23/23/2 47/53/2
f 48/54/2 18/18/2 49/55/2
f 35/56/1 50/57/1 26/58/1
f 12/12/2 39/40/2 25/25/2
f 47/59/1 51/60/1 48/61/1
f 22/22/2 16/16/2 23/23/2
f 7/62/3 52/63/3 53/64/3
f 49/65/1 54/66/1 55/67/1
f 8/8/2 40/41/2 41/42/2
f 55/68/4 56/69/4 36/70/4
f 30/30/2 21/21/2 27/27/2
f 36/71/3 57/72/3 18/73/3
f 10/74/4 58/75/4 59/76/4
f 5/5/2 29/29/2 38/43/2
f 60/77/3 61/78/3 14/79/3
f 35/35/2 28/28/2 32/32/2
f 62/80/5 63/81/5 64/82/5
f 65/83/5 66/84/5 67/85/5
f 67/86/2 34/34/2 68/87/2
f 20/88/5 69/89/5 17/90/5
f 70/91/2 33/33/2 62/92/2
f 24/93/4 71/94/4 40/95/4
f 61/96/2 72/97/2 73/98/2
f 74/99/2 75/100/2 69/101/2
f 76/102/2 56/103/2 54/104/2
f 77/105/2 78/106/2 51/107/2
f 79/108/2 80/109/2 81/110/2
f 82/111/2 83/112/2 84/113/2
f 85/114/2 86/115/2 44/116/2
f 87/117/2 71/118/2 88/119/2
f 89/120/2 90/121/2 91/122/2
f 92/123/2 2/124/2 93/125/2
f 37/126/2 50/127/2 94/128/2
f 52/129/2 95/130/2 96/131/2
f 97/132/2 98/133/2 63/134/2
f 99/135/2 100/136/2 101/137/2
f 66/138/2 102/139/2 103/140/2
f 5/141/1 95/142/1 9/143/1
f 28/144/3 92/145/3 32/146/3
f 104/147/3 82/148/3 11/149/3
f 3/150/4 105/151/4 28/152/4
f 22/153/1 80/154/1 19/155/1
f 17/156/1 75/157/1 106/158/1
f 39/159/3 79/160/3 25/161/3
f 42/162/3 74/163/3 20/164/3
f 26/165/4 107/166/4 29/167/4
f 12/168/1 83/169/1 13/170/1
f 32/171/5 93/172/5 1/173/5
f 16/174/3 108/175/3 23/176/3
f 109/177/4 110/178/4 60/179/4
f 27/180/5 85/181/5 43/182/5
f 9/183/4 111/184/4 7/185/4
f 48/186/4 78/187/4 16/188/4
f 53/189/5 96/190/5 5/191/5
f 23/192/5 77/193/5 47/194/5
f 112/195/5 91/196/5 8/197/5
f 18/198/5 76/199/5 49/200/5
f 4/201/3 113/202/3 65/203/3
f 19/204/4 114/205/4 39/206/4
f 11/207/5 84/208/5 12/209/5
f 70/210/1 101/211/1 31/212/1
f 14/213/5 73/214/5 15/215/5
f 68/216/5 99/217/5 70/218/5
f 34/219/3 115/220/3 68/221/3
f 13/222/4 116/223/4 104/224/4
f 67/225/1 103/226/1 6/227/1
f 106/228/4 117/229/4 42/230/4
f 33/231/3 97/232/3 62/233/3
f 59/234/3 89/235/3 112/236/3
f 46/237/4 118/238/4 33/239/4
f 30/240/1 88/241/1 24/242/1
f 38/243/5 94/244/5 35/245/5
f 41/246/3 71/247/3 119/248/3
f 15/249/1 72/250/1 109/251/1
f 31/252/4 100/253/4 34/254/4
f 8/255/1 90/256/1 10/257/1
f 41/258/5 87/259/5 30/260/5
f 21/261/3 120/262/3 27/263/3
f 6/264/4 102/265/4 4/266/4
f 45/267/4 86/268/4 21/269/4
f 25/270/5 81/271/5 22/272/5
f 64/273/1 98/274/1 46/275/1
f 1/1/1 93/276/1 2/2/1
f 4/4/2 53/277/2 5/5/2
f 7/7/2 112/278/2 8/8/2
f 10/10/2 59/279/2 11/11/2
f 13/13/2 104/280/2 14/14/2
f 16/16/2 19/19/2 17/17/2
f 19/19/2 39/40/2 20/20/2
f 21/21/2 24/24/2 22/22/2
f 24/24/2 40/41/2 25/25/2
f 26/26/2 30/30/2 27/27/2
f 29/29/2 41/42/2 30/30/2
f 31/31/2 35/35/2 32/32/2
f 34/34/2 38/43/2 35/35/2
f 17/17/2 106/281/2 36/36/2
f 29/37/3 107/282/3 37/38/3
f 39/40/2 13/13/2 15/15/2
f 40/41/2 10/10/2 12/12/2
f 9/9/2 8/8/2 41/42/2
f 6/6/2 5/5/2 38/43/2
f 15/15/2 109/283/2 42/44/2
f 43/45/1 85/284/1 44/46/1
f 33/33/2 32/32/2 1/48/2
f 28/28/2 27/27/2 43/50/2
f 45/52/2 21/21/2 23/23/2
f 48/54/2 16/16/2 18/18/2
f 35/56/1 94/285/1 50/57/1
f 12/12/2 13/13/2 39/40/2
f 47/59/1 77/286/1 51/60/1
f 22/22/2 19/19/2 16/16/2
f 7/62/3 111/287/3 52/63/3
f 49/65/1 76/288/1 54/66/1
f 8/8/2 10/10/2 40/41/2
f 55/68/4 54/289/4 56/69/4
f 30/30/2 24/24/2 21/21/2
f 36/71/3 56/290/3 57/72/3
f 10/74/4 90/291/4 58/75/4
f 5/5/2 9/9/2 29/29/2
f 60/77/3 110/292/3 61/78/3
f 35/35/2 26/26/2 28/28/2
f 62/80/5 97/293/5 63/81/5
f 65/83/5 113/294/5 66/84/5
f 67/86/2 6/6/2 34/34/2
f 20/88/5 74/295/5 69/89/5
f 70/91/2 31/31/2 33/33/2
f 24/93/4 88/296/4 71/94/4
f 61/96/2 110/297/2 72/97/2
f 74/99/2 117/298/2 75/100/2
f 76/102/2 57/299/2 56/103/2
f 77/105/2 108/300/2 78/106/2
f 79/108/2 114/301/2 80/109/2
f 82/111/2 116/302/2 83/112/2
f 85/114/2 120/303/2 86/115/2
f 87/117/2 119/304/2 71/118/2
f 89/120/2 58/305/2 90/121/2
f 92/123/2 105/306/2 2/124/2
f 37/126/2 107/307/2 50/127/2
f 52/129/2 111/308/2 95/130/2
f 97/132/2 118/309/2 98/133/2
f 99/135/2 115/310/2 100/136/2
f 66/138/2 113/311/2 102/139/2
f 5/141/1 96/312/1 95/142/1
f 28/144/3 105/313/3 92/145/3
f 104/147/3 116/314/3 82/148/3
f 3/150/4 2/315/4 105/151/4
f 22/153/1 81/316/1 80/154/1
f 17/156/1 69/317/1 75/157/1
f 39/159/3 114/318/3 79/160/3
f 42/162/3 117/319/3 74/163/3
f 26/165/4 50/320/4 107/166/4
f 12/168/1 84/321/1 83/169/1
f 32/171/5 92/322/5 93/172/5
f 16/174/3 78/323/3 108/175/3
f 109/177/4 72/324/4 110/178/4
f 27/180/5 120/325/5 85/181/5
f 9/183/4 95/326/4 111/184/4
f 48/186/4 51/327/4 78/187/4
f 53/189/5 52/328/5 96/190/5
f 23/192/5 108/329/5 77/193/5
f 112/195/5 89/330/5 91/196/5
f 18/198/5 57/331/5 76/199/5
f 4/201/3 102/332/3 113/202/3
f 19/204/4 80/333/4 114/205/4
f 11/207/5 82/334/5 84/208/5
f 70/210/1 99/335/1 101/211/1
f 14/213/5 61/336/5 73/214/5
f 68/216/5 115/337/5 99/217/5
f 34/219/3 100/338/3 115/220/3
f 13/222/4 83/339/4 116/223/4
f 67/225/1 66/340/1 103/226/1
f 106/228/4 75/341/4 117/229/4
f 33/231/3 118/342/3 97/232/3
f 59/234/3 58/343/3 89/235/3
f 46/237/4 98/344/4 118/238/4
f 30/240/1 87/345/1 88/241/1
f 38/243/5 37/346/5 94/244/5
f 41/246/3 40/347/3 71/247/3
f 15/249/1 73/348/1 72/250/1
f 31/252/4 101/349/4 100/253/4
f 8/255/1 91/350/1 90/256/1
f 41/258/5 119/351/5 87/259/5
f 21/261/3 86/352/3 120/262/3
f 6/264/4 103/353/4 102/265/4
f 45/267/4 44/354/4 86/268/4
f 25/270/5 79/355/5 81/271/5
f 64/273/1 63/356/1 98/274/1
